<?xml version="1.0" standalone="no"?>
<!DOCTYPE svg PUBLIC "-//W3C//DTD SVG 1.1//EN" "http://www.w3.org/Graphics/SVG/1.1/DTD/svg11.dtd">
<!-- Created with WaveDrom -->
<svg xmlns="http://www.w3.org/2000/svg" width="700" height="140" viewBox="0 0 700 140" class="WaveDrom" xmlns:xlink="http://www.w3.org/1999/xlink">
  <g stroke="white" fill="white" transform="translate(0.5,0.5)" text-anchor="middle" font-size="14" font-family="sans-serif" font-weight="normal">
    <g transform="translate(4,21)">
      <g stroke-width="1" stroke-linecap="round">
        <line x2="625" />
        <line y2="31" />
        <line x2="625" y1="31" y2="31" />
        <line x1="625" x2="625" y2="31" />
        <line x1="605" x2="605" y2="3" />
        <line x1="605" x2="605" y1="31" y2="28" />
        <line x1="586" x2="586" y2="3" />
        <line x1="586" x2="586" y1="31" y2="28" />
        <line x1="566" x2="566" y2="3" />
        <line x1="566" x2="566" y1="31" y2="28" />
        <line x1="547" x2="547" y2="3" />
        <line x1="547" x2="547" y1="31" y2="28" />
        <line x1="527" x2="527" y2="3" />
        <line x1="527" x2="527" y1="31" y2="28" />
        <line x1="508" x2="508" y2="3" />
        <line x1="508" x2="508" y1="31" y2="28" />
        <line x1="488" x2="488" y2="3" />
        <line x1="488" x2="488" y1="31" y2="28" />
        <line x1="469" x2="469" y2="3" />
        <line x1="469" x2="469" y1="31" y2="28" />
        <line x1="449" x2="449" y2="3" />
        <line x1="449" x2="449" y1="31" y2="28" />
        <line x1="430" x2="430" y2="3" />
        <line x1="430" x2="430" y1="31" y2="28" />
        <line x1="410" x2="410" y2="3" />
        <line x1="410" x2="410" y1="31" y2="28" />
        <line x1="391" x2="391" y2="3" />
        <line x1="391" x2="391" y1="31" y2="28" />
        <line x1="371" x2="371" y2="3" />
        <line x1="371" x2="371" y1="31" y2="28" />
        <line x1="352" x2="352" y2="3" />
        <line x1="352" x2="352" y1="31" y2="28" />
        <line x1="332" x2="332" y2="3" />
        <line x1="332" x2="332" y1="31" y2="28" />
        <line x1="313" x2="313" y2="3" />
        <line x1="313" x2="313" y1="31" y2="28" />
        <line x1="293" x2="293" y2="3" />
        <line x1="293" x2="293" y1="31" y2="28" />
        <line x1="273" x2="273" y2="3" />
        <line x1="273" x2="273" y1="31" y2="28" />
        <line x1="254" x2="254" y2="3" />
        <line x1="254" x2="254" y1="31" y2="28" />
        <line x1="234" x2="234" y2="31" />
        <line x1="215" x2="215" y2="3" />
        <line x1="215" x2="215" y1="31" y2="28" />
        <line x1="195" x2="195" y2="3" />
        <line x1="195" x2="195" y1="31" y2="28" />
        <line x1="176" x2="176" y2="3" />
        <line x1="176" x2="176" y1="31" y2="28" />
        <line x1="156" x2="156" y2="31" />
        <line x1="137" x2="137" y2="3" />
        <line x1="137" x2="137" y1="31" y2="28" />
        <line x1="117" x2="117" y2="3" />
        <line x1="117" x2="117" y1="31" y2="28" />
        <line x1="98" x2="98" y2="3" />
        <line x1="98" x2="98" y1="31" y2="28" />
        <line x1="78" x2="78" y2="31" />
        <line x1="59" x2="59" y2="3" />
        <line x1="59" x2="59" y1="31" y2="28" />
        <line x1="39" x2="39" y2="3" />
        <line x1="39" x2="39" y1="31" y2="28" />
        <line x1="20" x2="20" y2="3" />
        <line x1="20" x2="20" y1="31" y2="28" />
      </g>
      <g>
        <g />
        <g transform="translate(10,-11)">
          <g transform="translate(605)">
            <text y="6">0</text>
          </g>
          <g transform="translate(234)">
            <text y="6">19</text>
          </g>
          <g transform="translate(215)">
            <text y="6">20</text>
          </g>
          <g transform="translate(156)">
            <text y="6">23</text>
          </g>
          <g transform="translate(137)">
            <text y="6">24</text>
          </g>
          <g transform="translate(78)">
            <text y="6">27</text>
          </g>
          <g transform="translate(59)">
            <text y="6">28</text>
          </g>
          <g transform="translate(0)">
            <text y="6">31</text>
          </g>
        </g>
        <g transform="translate(10,15)">
          <g transform="translate(420)">
            <text y="6">
              <tspan>offset (imm20)</tspan>
            </text>
          </g>
          <g transform="translate(186)">
            <text y="6">
              <tspan>regB</tspan>
            </text>
          </g>
          <g transform="translate(107)">
            <text y="6">
              <tspan>regA</tspan>
            </text>
          </g>
          <g transform="translate(29)">
            <text y="6">
              <tspan>opcode</tspan>
            </text>
          </g>
        </g>
        <g transform="translate(10,39)">
          <g>
            <g transform="translate(29)">
              <text y="6">
                <tspan>LW</tspan>
              </text>
            </g>
            <g transform="translate(29,14)">
              <text y="6">
                <tspan>SW</tspan>
              </text>
            </g>
            <g transform="translate(29,28)">
              <text y="6">
                <tspan>BEQ</tspan>
              </text>
            </g>
            <g transform="translate(29,42)">
              <text y="6">
                <tspan>ADDI</tspan>
              </text>
            </g>
            <g transform="translate(29,56)">
              <text y="6">
                <tspan>BLT</tspan>
              </text>
            </g>
            <g transform="translate(29,70)">
              <text y="6">
                <tspan>BLTU</tspan>
              </text>
            </g>
          </g>
        </g>
      </g>
      <g text-anchor="start">
        <g transform="translate(629,16)">
          <text y="6">
            <tspan>I-Type</tspan>
          </text>
        </g>
      </g>
    </g>
  </g>
</svg>
